Coordinates
version=1
nRows=12
nColumns=24
inDegrees=yes

Units are S.I. units (second, meters, Newtons, ...)
Angles are in degrees.

endheader
time	pelvis_tilt	pelvis_list	pelvis_rotation	pelvis_tx	pelvis_ty	pelvis_tz	hip_flexion_r	hip_adduction_r	hip_rotation_r	knee_angle_r	ankle_angle_r	subtalar_angle_r	mtp_angle_r	hip_flexion_l	hip_adduction_l	hip_rotation_l	knee_angle_l	ankle_angle_l	subtalar_angle_l	mtp_angle_l	lumbar_extension	lumbar_bending	lumbar_rotation
      4.37000000	     -3.51014138	      9.07406061	     -8.72319659	     -0.93082498	     -0.05601451	      0.43078358	      9.05370892	    -13.79128657	      0.43468917	    -65.09801443	    -28.35271910	      8.50339674	     21.96353474	     29.19280649	     12.02486857	     -1.64765355	    -34.35381540	      0.42001252	     10.30576217	     17.08300409	      2.58329257	     -9.64518126	     11.73405124
      4.37500000	     -3.38998561	      9.08836164	     -8.52273967	     -0.92310992	     -0.05472331	      0.43030359	      9.90258904	    -13.70363554	      0.53095818	    -65.93361269	    -27.23461101	      7.81004544	     22.45929988	     28.31164721	     12.32894651	     -1.32980061	    -34.03354581	      0.88258961	     10.27323667	     17.06224450	      2.45965628	     -9.66731001	     11.44760930
      4.38000000	     -3.22159113	      9.06708102	     -8.32048059	     -0.91532687	     -0.05323613	      0.42979426	     10.66393263	    -13.57330678	      0.64514808	    -66.62373051	    -26.12820984	      7.36797250	     23.18670158	     27.32945864	     12.61884041	     -0.93138561	    -33.67819996	      1.38806342	     10.25880317	     16.70863834	      2.29499195	     -9.64572834	     11.06669140
      4.38500000	     -3.11395773	      9.04225579	     -8.15221791	     -0.90756583	     -0.05173756	      0.42939206	     11.51846632	    -13.40308309	      0.78146118	    -67.25733562	    -25.07054556	      6.88121924	     23.67841501	     26.38867071	     12.85472253	     -0.55377448	    -33.26012591	      1.80416771	     10.28775004	     16.61583154	      2.21227665	     -9.61247469	     10.77476277
      4.39000000	     -2.97878708	      8.95313284	     -7.97170604	     -0.89979573	     -0.05013342	      0.42895329	     12.30791944	    -13.16747107	      0.88665566	    -67.77601482	    -23.98811141	      6.60515450	     24.22516996	     25.38876460	     13.04020776	     -0.10784467	    -32.82757388	      2.19610126	     10.25817294	     16.43663463	      2.09830919	     -9.51006021	     10.46276211
      4.39500000	     -2.84713789	      8.82390650	     -7.79860231	     -0.89202898	     -0.04845898	      0.42853152	     13.08424252	    -12.86953275	      0.99745374	    -68.19236380	    -22.94874893	      6.41208947	     24.75761226	     24.36744805	     13.17387951	      0.35812749	    -32.36581729	      2.55667936	     10.20091366	     16.22089042	      1.98717054	     -9.35503656	     10.16571143
      4.40000000	     -2.71983468	      8.65616188	     -7.62839123	     -0.88427118	     -0.04673940	      0.42811638	     13.84829810	    -12.52108520	      1.09375627	    -68.51257923	    -21.94892836	      6.29157930	     25.26890740	     23.33146073	     13.25844678	      0.84903331	    -31.88403539	      2.88836735	     10.12445253	     15.98293773	      1.88493576	     -9.15694228	      9.86575093
      4.40500000	     -2.58010992	      8.48714476	     -7.47545960	     -0.87649870	     -0.04498667	      0.42772114	     14.58959237	    -12.16838936	      1.18969629	    -68.73535068	    -21.00410089	      6.21868394	     25.84958475	     22.26358200	     13.33163968	      1.33575722	    -31.37673351	      3.23921152	     10.03044226	     15.56774391	      1.77783935	     -8.95405457	      9.59027266
      4.41000000	     -2.48159767	      8.23687801	     -7.27045242	     -0.86876883	     -0.04323559	      0.42730126	     15.33084893	    -11.72043476	      1.21440580	    -68.86656141	    -20.06687617	      6.22393425	     26.27046707	     21.22684464	     13.31698784	      1.89403872	    -30.86551859	      3.51786884	      9.93051089	     15.35151692	      1.69690151	     -8.66394272	      9.24000217
      4.41500000	     -2.41483590	      7.95285112	     -7.08554761	     -0.86100992	     -0.04146943	      0.42692228	     16.09055296	    -11.21527455	      1.24848176	    -68.90049541	    -19.22315628	      6.24264789	     26.60733345	     20.19511422	     13.24644510	      2.47628893	    -30.30763815	      3.76174865	      9.79035363	     15.15816024	      1.66808406	     -8.32700350	      8.97221237
      4.42000000	     -2.28216425	      7.68889199	     -6.84949791	     -0.85332569	     -0.03970594	      0.42645767	     16.75236054	    -10.77745592	      1.20572046	    -68.85540008	    -18.29594391	      6.40406543	     27.02284550	     19.09833375	     13.22381477	      3.12357998	    -29.75836427	      3.96333580	      9.58562570	     14.78999413	      1.54216653	     -8.03134203	      8.53525509
      4.42500000	     -2.20867593	      7.36510835	     -6.61925952	     -0.84566606	     -0.03795934	      0.42604056	     17.45629720	    -10.24399545	      1.16901748	    -68.71440281	    -17.49165645	      6.53024724	     27.32357566	     18.05027492	     13.10762014	      3.77901760	    -29.18784181	      4.14413717	      9.38523402	     14.47334392	      1.48251903	     -7.66128384	      8.14436121
